<svg width="29" height="29" viewBox="0 0 29 29" fill="none" xmlns="http://www.w3.org/2000/svg">
<path d="M24.1668 12.0833C24.1668 19.3333 14.5002 26.5833 14.5002 26.5833C14.5002 26.5833 4.8335 19.3333 4.8335 12.0833C4.8335 9.51953 5.85195 7.06078 7.6648 5.24793C9.47765 3.43508 11.9364 2.41663 14.5002 2.41663C17.0639 2.41663 19.5227 3.43508 21.3355 5.24793C23.1484 7.06078 24.1668 9.51953 24.1668 12.0833Z" fill="#27EE47" stroke="#27EE47" stroke-linecap="round" stroke-linejoin="round"/>
<path d="M14.5 15.7084C16.502 15.7084 18.125 14.0854 18.125 12.0834C18.125 10.0813 16.502 8.45837 14.5 8.45837C12.498 8.45837 10.875 10.0813 10.875 12.0834C10.875 14.0854 12.498 15.7084 14.5 15.7084Z" fill="white" stroke="white" stroke-width="2" stroke-linecap="round" stroke-linejoin="round"/>
</svg>
